<?xml version="1.0" encoding="UTF-8"?>
<svg id="Layer_2" data-name="Layer 2" xmlns="http://www.w3.org/2000/svg" width="230.98" height="229.1" viewBox="0 0 230.98 229.1">
  <defs>
    <style>
      .cls-1 {
        fill: #ead88c;
      }

      .cls-2 {
        fill: #fff;
      }
    </style>
  </defs>
  <g id="Layer_2-2" data-name="Layer 2">
    <ellipse class="cls-2" cx="115.49" cy="114.55" rx="115.49" ry="114.55"/>
    <g>
      <path class="cls-1" d="M106.13,146.43c0,6.85-2.14,12.39-4.78,12.39s-4.78-5.55-4.78-12.39,2.14-12.38,4.78-12.38,4.78,5.55,4.78,12.38Z"/>
      <path class="cls-1" d="M123.44,166.57c0,1.36-2.45,2.51-5.87,2.95.05.41.06.83.06,1.26,0,3.47-1.43,6.29-3.18,6.29s-3.17-2.82-3.17-6.29c0-.42.02-.85.06-1.26-3.43-.44-5.87-1.59-5.87-2.95,0-1.75,4.03-3.17,8.98-3.17s8.99,1.42,8.99,3.17h0Z"/>
      <path class="cls-1" d="M132.32,146.43c0,6.85-2.14,12.39-4.78,12.39s-4.78-5.55-4.78-12.39,2.15-12.38,4.78-12.38,4.78,5.55,4.78,12.38Z"/>
      <path class="cls-1" d="M115.2,0C51.58,0,0,51.33,0,114.65c0,40.04,20.62,75.28,51.86,95.79-.68-10.19,3.97-22.58,6.49-31.64,2.96-9.48,6.15-18.76,9.49-27.37.78-79.25,2.84-118.92,6.15-119.03,2.81-.08,6.52,28.2,11.14,84.85.73-.96,1.45-1.89,2.17-2.75,4.7-5.45,11.64-8.95,18.6-10.91,14.28-3.72,32.71.18,41.99,12.27.37.43.72.87,1.08,1.34,4.62-56.62,8.33-84.88,11.14-84.8,3.31.11,5.35,39.7,6.15,118.76,3.59,9.19,6.94,19.1,9.72,28.75,2.38,8.9,5.89,18.91,5.8,28.32,29.42-20.77,48.61-54.94,48.61-93.58C230.39,51.33,178.82,0,115.2,0ZM130.43,89.15c-.67.57-1.37,1.11-2.1,1.6-.09.07-.18.14-.28.2-1.46.99-3.02,1.83-4.64,2.49-.03.01-.06.02-.09.03-2.11.78-4.4,1.2-6.78,1.2-3.41,0-6.61-.86-9.4-2.38-.39-.21-.77-.43-1.14-.67-8.72-5.27-14.69-15.88-14.69-28.13,0-2.38.23-4.71.66-6.94.5-2.6,1.27-5.07,2.28-7.39,1.42,5.07,3.91,9.57,7.16,13.15,1.38,1.52,2.89,2.88,4.52,4.04-.92-2-1.71-4.08-2.36-6.24-1.47-4.81-2.26-9.98-2.26-15.37,0-2.08.12-4.13.35-6.14.13-1.15.3-2.28.51-3.4.93-5.16,2.6-9.99,4.88-14.36,2.58-4.94,5.93-9.26,9.87-12.75-.11,1.11-.44,4.97.33,9.84.48,3.01,1.37,6.41,3,9.78.88,1.84,1.8,3.29,2.74,4.5.53.69,1.07,1.3,1.61,1.85,3.8,3.92,7.74,5.22,10.78,12.65,2.64,6.44,2.41,12.15,2.34,13.35-.07,1.33-.23,2.6-.46,3.82-.4,2.09-1.01,4-1.74,5.74-1.58,3.77-3.73,6.71-5.49,8.72,2.25-1.22,4.32-2.8,6.18-4.66,2.07-2.06,3.86-4.48,5.32-7.17-.75,9.31-4.95,17.44-11.1,22.64Z"/>
    </g>
    <path class="cls-1" d="M122.88,84.3c0,2.37-1.88,4.38-4.47,5.07-.62.17-1.3.27-1.99.27-.48,0-.94-.04-1.38-.13-2.9-.52-5.08-2.66-5.08-5.21,0-.16,0-.32.03-.47.62-.18,1.3-.27,1.99-.27,1.87,0,3.57.66,4.75,1.72,1.17-1.06,2.86-1.72,4.73-1.72.48,0,.95.04,1.39.13.03.2.04.4.04.61h0Z"/>
  </g>
</svg>