<?xml version="1.0" encoding="UTF-8"?>
<svg id="Layer_2" xmlns="http://www.w3.org/2000/svg" width="301.17" height="384.02" viewBox="0 0 301.17 384.02">
  <defs>
    <style>
      .cls-1 {
        fill: #ead88c;
      }

      .cls-2 {
        fill: #fff;
      }
    </style>
  </defs>
  <g id="Layer_1-2" data-name="Layer_1">
    <ellipse class="cls-2" cx="150.2" cy="114.55" rx="115.49" ry="114.55"/>
    <g>
      <path d="M14.38,314.49c-3.49,0-6.29-.76-8.4-2.27s-3.63-3.77-4.57-6.78-1.41-6.76-1.41-11.27v-30.78c0-3.96.45-7.38,1.35-10.25.9-2.88,2.4-5.1,4.51-6.68,2.11-1.58,5-2.36,8.67-2.36,2.76,0,5.04.45,6.86,1.35,1.81.9,3.24,2.19,4.28,3.87,1.04,1.68,1.78,3.71,2.21,6.07.43,2.37.64,5.04.64,8.01v30.78c0,4.51-.45,8.26-1.35,11.27s-2.38,5.27-4.45,6.78-4.85,2.27-8.34,2.27ZM14.38,306.63c1.41,0,2.47-.4,3.2-1.21.73-.81,1.22-2.12,1.48-3.95.26-1.82.39-4.23.39-7.23v-31.33c0-3.65-.31-6.39-.94-8.22s-1.95-2.75-3.98-2.75-3.54.9-4.3,2.7c-.76,1.8-1.13,4.54-1.13,8.24v31.37c0,3.02.13,5.44.39,7.25.26,1.81.77,3.12,1.54,3.93.77.81,1.88,1.21,3.34,1.21Z"/>
      <path d="M38.59,313.7v-68.75h9.06v61.13h12.93v7.62h-21.99Z"/>
      <path d="M70.78,313.7v-28.28l-11.76-40.47h8.83l7.5,26.99h.16l6.52-26.99h8.87l-11.02,40.47v28.28h-9.1Z"/>
      <path d="M96.95,313.7v-68.75h10.86l10.23,53.01,9.73-53.01h10.9v68.75h-7.89v-25.86l.55-24.77-9.92,50.51h-6.84l-10.31-50.51.55,24.77v25.86h-7.85Z"/>
      <path d="M149.57,313.7v-68.75h14.65c2.73,0,4.97.44,6.72,1.31,1.74.87,3.1,2.16,4.06,3.85.96,1.69,1.63,3.75,2.01,6.17.38,2.42.57,5.17.57,8.24v1.21c0,4.53-.37,8.35-1.11,11.46-.74,3.11-2.06,5.47-3.96,7.07-1.9,1.6-4.61,2.4-8.12,2.4h-5.74v27.03h-9.06ZM158.63,279.13h4.38c1.56,0,2.74-.42,3.54-1.27.79-.85,1.33-2.25,1.6-4.22.27-1.97.41-4.62.41-7.95v-1.33c0-4.14-.33-7.23-1-9.26s-2.13-3.05-4.39-3.05h-4.53v27.07Z"/>
      <path d="M185.35,313.7v-68.75h9.1v68.75h-9.1Z"/>
      <path d="M201.56,313.7l10.16-68.75h11.45l10.98,68.75h-8.52l-1.84-12.77h-11.88l-1.68,12.77h-8.67ZM212.85,293.63h9.88l-5.08-35.59h-.12l-4.69,35.59Z"/>
      <path d="M241.13,313.7v-68.75h13.98c3.54,0,6.33.73,8.38,2.19,2.04,1.46,3.5,3.55,4.38,6.27.87,2.72,1.31,5.98,1.31,9.79l.04,30.55c0,4.58-.48,8.35-1.43,11.29-.95,2.94-2.48,5.12-4.59,6.54-2.11,1.42-4.91,2.13-8.4,2.13h-13.67ZM250.2,306.52h3.83c1.38,0,2.52-.29,3.42-.88s1.58-1.65,2.03-3.18c.46-1.54.68-3.75.68-6.64l-.04-32.62c0-3.98-.48-6.84-1.43-8.55-.95-1.72-2.55-2.58-4.79-2.58h-3.71v54.45Z"/>
      <path d="M279.3,313.7v-68.75h21.6v7.7h-12.54v22.03h11.88v7.62h-11.88v23.71h12.81v7.7h-21.88Z"/>
    </g>
    <g>
      <path class="cls-1" d="M140.84,146.43c0,6.85-2.14,12.39-4.78,12.39s-4.78-5.55-4.78-12.39,2.14-12.38,4.78-12.38,4.78,5.55,4.78,12.38Z"/>
      <path class="cls-1" d="M158.15,166.57c0,1.36-2.45,2.51-5.87,2.95.05.41.06.83.06,1.26,0,3.47-1.43,6.29-3.18,6.29s-3.17-2.82-3.17-6.29c0-.42.02-.85.06-1.26-3.43-.44-5.87-1.59-5.87-2.95,0-1.75,4.03-3.17,8.98-3.17s8.99,1.42,8.99,3.17Z"/>
      <path class="cls-1" d="M167.03,146.43c0,6.85-2.14,12.39-4.78,12.39s-4.78-5.55-4.78-12.39,2.15-12.38,4.78-12.38,4.78,5.55,4.78,12.38Z"/>
      <path class="cls-1" d="M149.91,0C86.29,0,34.71,51.33,34.71,114.65c0,40.04,20.62,75.28,51.86,95.79-.68-10.19,3.97-22.58,6.49-31.64,2.96-9.48,6.15-18.76,9.49-27.37.78-79.25,2.84-118.92,6.15-119.03,2.81-.08,6.52,28.2,11.14,84.85.73-.96,1.45-1.89,2.17-2.75,4.7-5.45,11.64-8.95,18.6-10.91,14.28-3.72,32.71.18,41.99,12.27.37.43.72.87,1.08,1.34,4.62-56.62,8.33-84.88,11.14-84.8,3.31.11,5.35,39.7,6.15,118.76,3.59,9.19,6.94,19.1,9.72,28.75,2.38,8.9,5.89,18.91,5.8,28.32,29.42-20.77,48.61-54.94,48.61-93.58C265.1,51.33,213.53,0,149.91,0ZM165.14,89.15c-.67.57-1.37,1.11-2.1,1.6-.09.07-.18.14-.28.2-1.46.99-3.02,1.83-4.64,2.49-.03.01-.06.02-.09.03-2.11.78-4.4,1.2-6.78,1.2-3.41,0-6.61-.86-9.4-2.38-.39-.21-.77-.43-1.14-.67-8.72-5.27-14.69-15.88-14.69-28.13,0-2.38.23-4.71.66-6.94.5-2.6,1.27-5.07,2.28-7.39,1.42,5.07,3.91,9.57,7.16,13.15,1.38,1.52,2.89,2.88,4.52,4.04-.92-2-1.71-4.08-2.36-6.24-1.47-4.81-2.26-9.98-2.26-15.37,0-2.08.12-4.13.35-6.14.13-1.15.3-2.28.51-3.4.93-5.16,2.6-9.99,4.88-14.36,2.58-4.94,5.93-9.26,9.87-12.75-.11,1.11-.44,4.97.33,9.84.48,3.01,1.37,6.41,3,9.78.88,1.84,1.8,3.29,2.74,4.5.53.69,1.07,1.3,1.61,1.85,3.8,3.92,7.74,5.22,10.78,12.65,2.64,6.44,2.41,12.15,2.34,13.35-.07,1.33-.23,2.6-.46,3.82-.4,2.09-1.01,4-1.74,5.74-1.58,3.77-3.73,6.71-5.49,8.72,2.25-1.22,4.32-2.8,6.18-4.66,2.07-2.06,3.86-4.48,5.32-7.17-.75,9.31-4.95,17.44-11.1,22.64Z"/>
    </g>
    <path class="cls-1" d="M157.59,84.3c0,2.37-1.88,4.38-4.47,5.07-.62.17-1.3.27-1.99.27-.48,0-.94-.04-1.38-.13-2.9-.52-5.08-2.66-5.08-5.21,0-.16,0-.32.03-.47.62-.18,1.3-.27,1.99-.27,1.87,0,3.57.66,4.75,1.72,1.17-1.06,2.86-1.72,4.73-1.72.48,0,.95.04,1.39.13.03.2.04.4.04.61Z"/>
    <g>
      <path d="M44.63,383.44v-51.56h7.94c2.79,0,4.9.6,6.33,1.8,1.43,1.2,2.39,2.91,2.9,5.11.51,2.21.76,4.8.76,7.79v22.09c0,3.57-.33,6.44-.98,8.6-.65,2.16-1.72,3.73-3.21,4.7-1.48.98-3.48,1.46-5.98,1.46h-7.76ZM48.96,379.69h3.6c1.27,0,2.32-.29,3.15-.88.83-.59,1.45-1.7,1.86-3.35s.62-4.06.62-7.22v-22.12c0-3.81-.44-6.53-1.32-8.16s-2.23-2.45-4.04-2.45h-3.87v44.18Z"/>
      <path d="M71.4,383.44v-51.56h13.62v3.4h-9.26v20.16h8.7v3.54h-8.7v21.01h9.17v3.46h-13.54Z"/>
      <path d="M92.38,383.44v-51.56h8.76c2.77,0,4.8.44,6.09,1.32s2.12,2.26,2.5,4.13.57,4.3.57,7.27c0,3.3-.34,5.96-1.03,7.97-.68,2.01-1.92,3.27-3.72,3.78,1,.16,1.81.59,2.43,1.3.62.71,1.1,1.88,1.42,3.49s.55,3.83.67,6.67c.13,2.83.19,6.45.19,10.84v1.25c0,.36,0,.69.03.98.02.29.05.57.1.83.05.26.11.54.19.82.08.28.19.59.32.92h-4.34c-.12-.23-.22-.51-.29-.83-.08-.32-.14-.8-.19-1.42-.05-.62-.08-1.5-.1-2.64-.02-1.13-.03-2.63-.04-4.48-.01-1.86-.01-4.17-.01-6.94,0-2.36-.05-4.16-.16-5.39-.11-1.23-.48-2.08-1.11-2.56-.63-.48-1.73-.77-3.3-.86l-4.63-.29v25.43h-4.37ZM96.72,355.08h4.57c1.25,0,2.21-.22,2.89-.66s1.14-1.4,1.39-2.87c.25-1.47.38-3.75.38-6.84v-.38c0-2.54-.11-4.43-.34-5.68-.22-1.25-.65-2.08-1.27-2.5-.63-.42-1.53-.63-2.72-.63h-4.89v19.57Z"/>
      <path d="M139.37,384.02c-2.05,0-3.68-.42-4.88-1.25s-2.09-1.97-2.68-3.43-.97-3.14-1.14-5.07-.26-3.98-.26-6.17v-5.33h4.28v5.24c0,4.41.32,7.59.95,9.52.63,1.93,1.97,2.9,4,2.9,1.43,0,2.45-.35,3.06-1.05s1-1.81,1.16-3.31c.16-1.5.23-3.47.23-5.89,0-2.66-.33-4.8-.98-6.43-.65-1.63-1.82-3.22-3.5-4.76l-3.05-2.81c-.94-.86-1.91-1.86-2.93-2.99-1.02-1.13-1.88-2.46-2.58-3.97s-1.05-3.26-1.05-5.23c0-2.48.22-4.68.66-6.61s1.31-3.44,2.61-4.54c1.3-1.1,3.25-1.66,5.84-1.66,2.11,0,3.75.41,4.92,1.22s2.02,1.94,2.53,3.38c.52,1.45.83,3.12.95,5.04s.18,3.98.18,6.21v2.9h-3.9v-3.22c0-3.16-.14-5.6-.42-7.31-.28-1.71-.76-2.9-1.42-3.56-.66-.66-1.59-1-2.78-1s-2.06.22-2.77.67c-.71.45-1.23,1.27-1.55,2.48s-.48,2.95-.48,5.26c0,1.64.19,2.96.56,3.97.37,1.01.94,1.92,1.7,2.74s1.71,1.8,2.84,2.93l2.84,2.81c1.95,1.91,3.48,4.03,4.58,6.36,1.1,2.32,1.66,5.19,1.66,8.58,0,2.62-.22,4.93-.67,6.94-.45,2.01-1.33,3.58-2.64,4.72-1.31,1.13-3.26,1.7-5.86,1.7Z"/>
      <path d="M155.46,383.44v-51.56h8.96c2.07,0,3.71.37,4.92,1.1,1.21.73,2.1,1.77,2.68,3.11.58,1.34.95,2.92,1.11,4.75.17,1.83.25,3.83.25,6.02v.53c0,3.59-.25,6.56-.75,8.91s-1.41,4.09-2.74,5.24c-1.33,1.15-3.24,1.73-5.74,1.73h-4.34v20.19h-4.37ZM159.82,359.56h4.63c1.21,0,2.14-.37,2.8-1.11.65-.74,1.11-2,1.36-3.76.25-1.77.38-4.18.38-7.25v-1c.02-3.77-.24-6.53-.79-8.29-.55-1.76-1.73-2.64-3.54-2.64h-4.83v24.05Z"/>
      <path d="M180.33,383.44v-51.56h4.37v51.56h-4.37Z"/>
      <path d="M194.48,383.44v-51.56h13.62v3.4h-9.26v20.16h8.7v3.54h-8.7v21.01h9.17v3.46h-13.54Z"/>
      <path d="M215.46,383.44v-51.56h4.37v48.11h9.14v3.46h-13.51Z"/>
      <path d="M234.29,383.44v-51.56h13.62v3.4h-9.26v20.16h8.7v3.54h-8.7v21.01h9.17v3.46h-13.54Z"/>
    </g>
  </g>
</svg>